<svg xmlns="http://www.w3.org/2000/svg" viewBox="0 0 400 400"><defs><pattern id="a" patternUnits="userSpaceOnUse" width="28" height="20" patternTransform="rotate(45)" x="0"><path class="s2" d="M0 0v20" style="stroke-width:8"/></pattern><symbol viewBox="0 0 100 89.96" id="queen"><path d="M18.9 82.16h62.2s3.9 0 3.9 3.9 0 3.9-3.9 3.9H18.9s-3.9 0-3.9-3.9 0-3.9 3.9-3.9M45 5a5 5 0 1 0 10 0 5 5 0 1 0-10 0m21 49L50 6 34 54 5 29l13 49h64l13-49-29 25zm24-26a5 5 0 1 0 10 0 5 5 0 1 0-10 0M0 28a5 5 0 1 0 10 0 5 5 0 1 0-10 0"/></symbol><filter id="b"><feColorMatrix in="SourceGraphic" values="0 0 0 .6 0 0 0 0 0 0 0 0 0 .05 0 0 0 0 1.0 0"/></filter><style>.s1{stroke:#444}.s2{stroke:#000}</style></defs><path d="M5 5h78v78H5Z" class="s1" style="fill:#b7a5dd"/><path d="M83 5h78v78H83Zm78 0h78v78h-78Zm78 0h78v78h-78Zm78 0h78v78h-78Zm-78 78h78v78h-78Z" class="s1" style="fill:#f1cb9a"/><path d="M5 83h78v78H5Zm156 0h78v78h-78Zm156 0h78v78h-78ZM5 161h78v78H5Zm156 0h78v78h-78Zm78 0h78v78h-78Zm78 0h78v78h-78ZM5 239h78v78H5Zm78 0h78v78H83Zm78 0h78v78h-78ZM5 317h78v78H5Zm78 0h78v78H83Zm78 0h78v78h-78Zm78 0h78v78h-78Zm78 0h78v78h-78Z" class="s1" style="fill:#a4bef9"/><path d="M83 83h78v78H83Zm0 78h78v78H83Z" class="s1" style="fill:#bedda7"/><path d="M239 239h78v78h-78Zm78 0h78v78h-78Z" class="s1" style="fill:#dfdfdf"/><path filter="url(#b)" d="M161 317h78v78h-78zm78 0h78v78h-78zm78 0h78v78h-78zm-234 0h78v78H83zm-78 0h78v78H5zm0-78h78v78H5zm78 0h78v78H83zm78 0h78v78h-78zm0-78h78v78h-78zm78 0h78v78h-78zm78 0h78v78h-78zm0-78h78v78h-78zm-156 0h78v78h-78zM5 161h78v78H5zm0-78h78v78H5z" style="fill:url(#a)"/><path class="s2" d="M5 5v78M5 5h78m0 0h78m0 0h78m0 0h78m78 0v78M317 5h78M5 83v78m390-78v78M5 161v78m390-78v78M5 239v78m390-78v78M5 317v78m0 0h78m0 0h78m0 0h78m0 0h78m78-78v78m-78 0h78" style="stroke-width:4"/><path class="s2" d="M83 5v78M5 83h78m0 0h78m0 0h78m78 0h78M83 83v78m78-78v78m78-78v78m78-78v78m-78 0h78m-234 0v78m78-78v78m-78 0h78m78 0h78m0 0h78m-156 0v78m0 0h78m0 0h78" style="stroke-width:2.5"/><use href="#queen" x="262.4" y="184.4" filter="url(#b)" width="31.2" height="31.2"/><use href="#queen" x="184.4" y="340.4" filter="url(#b)" width="31.2" height="31.2"/></svg>