<svg id="Layer_2" data-name="Layer 2" xmlns="http://www.w3.org/2000/svg" viewBox="0 0 424.44 96.37"><defs><style>.cls-1,.cls-2{fill:#6663ac;stroke-width:0}.cls-2{fill:#353434}</style></defs><g id="Layer_1-2" data-name="Layer 1"><path class="cls-1" d="M109.82 45.29c0 7.66-.03 15.32.03 22.98.01 1.41-.34 1.89-1.81 1.85-3.36-.11-6.73-.15-10.08.01-2.01.1-2.84-.52-2.67-2.55.06-.67.35-1.66-.33-2.03-.86-.46-1.14.65-1.64 1.09-5.77 4.97-12.33 5.35-19.08 2.83-5.02-1.87-7.32-6.19-8.35-11.25-.6-2.96-.48-5.95-.48-8.93 0-8.9.04-17.8-.04-26.71-.02-1.66.45-2.1 2.08-2.05 3.8.12 7.6.11 11.4 0 1.57-.04 1.95.5 1.94 1.99-.06 9.92-.03 19.85-.03 29.77 0 3.77 1.05 5.63 3.63 6.48 3.34 1.11 7.51 0 9.41-2.44.71-.9.66-1.89.66-2.9 0-10.14.06-20.29-.05-30.43-.02-2.09.65-2.57 2.59-2.49 3.58.14 7.17.15 10.74 0 1.81-.08 2.13.57 2.11 2.22-.09 7.51-.04 15.03-.04 22.55ZM235.2 26.05c2.75-2.83 5.56-4.96 9.16-5.75 5.03-1.11 9.89-.94 14.28 2.11 3.42 2.38 4.71 6 5.5 9.86.44 2.15.57 4.33.57 6.52-.02 9.7-.04 19.41.03 29.11.01 1.63-.27 2.3-2.1 2.23-3.72-.16-7.46-.14-11.18 0-1.73.06-2.25-.44-2.23-2.19.08-9.7-.04-19.41.06-29.11.07-6.47-3.27-8.12-9.3-7.12-3.02.5-4.36 2.46-4.36 5.53 0 10.22-.03 20.43.03 30.65.01 1.66-.37 2.33-2.19 2.26-3.8-.14-7.6-.08-11.4-.02-1.22.02-1.82-.15-1.82-1.63.05-15.47.05-30.94 0-46.41 0-1.35.55-1.54 1.69-1.53 3.65.05 7.31.06 10.96 0 1.19-.02 1.7.3 1.74 1.55.04 1.2.32 2.4.55 3.95ZM306.23 35.51c-1.17 0-2.34-.05-3.51.01-2.23.13-4.01.26-4.66-2.87-.53-2.57-3.27-3-5.75-2.93-2.37.06-4.32.89-5.34 3.13-.93 2.04-.07 4.02 2.22 5.27 2.81 1.53 5.99 1.8 9.03 2.55 3.2.79 6.33 1.75 9.18 3.43 8.04 4.71 9 15.37 1.95 21.5-3.01 2.61-6.56 4.04-10.44 4.7-6.38 1.08-12.66.97-18.58-2.04-4.78-2.43-8.11-6.14-9.39-11.45-.55-2.27-.3-2.53 1.99-2.54 3.36 0 6.73.04 10.09-.02 1.19-.02 1.77.28 2.14 1.54 1.37 4.69 8.29 6.8 12.26 3.83 2.62-1.96 2.42-5.13-.44-6.77-2.38-1.37-5.07-1.82-7.68-2.44-3.93-.93-7.74-2.15-11.11-4.44-7.87-5.33-8.07-16.23-.37-21.88 6.62-4.85 14.06-5.16 21.77-3.68 5.71 1.1 10.42 3.71 13.14 9.13.07.13.15.25.21.38 2.07 4.62 1.49 5.57-3.41 5.57h-3.29Z"/><path d="M297.03 90.22c0 1.02-.12 2.06.03 3.06.26 1.85-.45 2.3-2.26 2.29-1.76 0-2.23-.51-2.11-2.19.15-2.18.03-4.38.04-6.56 0-1.34-.39-2.29-1.97-2.28-1.52.01-1.99.8-1.95 2.23.07 2.48-.04 4.96.04 7.44.07 2.05-1.42 1.17-2.29 1.24-.89.08-2.1.51-2.04-1.29.1-3.57 0-7.15.05-10.72 0-.64-.49-1.74.49-1.85 1.12-.12 2.6-.77 3.4.41.55.82.7.49 1.25.18 3.95-2.19 6.93-.61 7.29 3.87.11 1.38.02 2.77.02 4.16h.03Z" style="fill:#353535;stroke-width:0"/><path d="M260.6 86.68c-1.61-.26-3.5 1.08-4.57-1.49-.52-1.25-2.63-.82-3.11.58-.6 1.76-.61 3.62-.02 5.38.53 1.61 2.43 1.88 3.43.43 1.12-1.64 2.61-.76 3.92-.79.74-.02.28.82.16 1.22-.67 2.32-2.38 3.32-4.67 3.62-2.77.37-5.21-.56-6.38-2.76-1.53-2.89-1.52-5.91.02-8.79 1.28-2.4 4.09-3.31 7.26-2.6 2.38.54 3.64 2.14 3.96 5.2Z" style="fill:#353534;stroke-width:0"/><path d="M267.04 85.64c0 2.84-.08 5.68.03 8.52.08 2.01-1.32 1.26-2.22 1.32-.9.05-2.04.49-2.01-1.31.09-5.68.1-11.36 0-17.03-.03-1.78 1.09-1.38 2-1.32.9.06 2.31-.7 2.23 1.31-.11 2.83-.03 5.68-.03 8.52Z" style="fill:#343434;stroke-width:0"/><path class="cls-1" d="M424.43 7.3c0-4.64-2.68-7.29-7.37-7.29C389.8 0 362.53 0 335.26 0c-4.68 0-7.36 2.65-7.36 7.3v81.66c0 4.79 2.64 7.4 7.48 7.41h81.58c4.84 0 7.47-2.61 7.47-7.41V7.3Zm-26 74.47c-14.82.01-29.64.01-44.46 0-2.55 0-4.01-1.17-3.96-3.05.05-1.89 1.46-2.89 4.1-2.89h44.24c2.58 0 4.01 1.11 3.96 3.03-.05 1.81-1.45 2.91-3.88 2.91Zm11.92-42.58c-1.28.26-1.59.87-1.87 1.96-2.57 9.88-5.22 19.74-7.78 29.62-.38 1.48-.91 2.1-2.6 2.09-14.63-.08-29.25-.08-43.88 0-1.71 0-2.21-.64-2.59-2.1-2.56-9.88-5.21-19.74-7.78-29.62-.28-1.1-.62-1.69-1.88-1.94-2.42-.49-3.63-2.65-2.96-4.75.63-1.99 2.98-3.11 4.97-2.37 2.11.79 2.93 3.13 1.75 5.45-.38.75-.36 1.09.25 1.61 6.04 5.17 12.06 10.37 18.23 15.69 3.15-9.42 6.25-18.67 9.34-27.91.28-.83.52-1.67.85-2.48.55-1.34.78-2.34-.8-3.41-1.69-1.14-1.53-3.8-.08-5.25 1.43-1.44 3.91-1.43 5.34.02 1.44 1.46 1.58 4.13-.12 5.24-1.64 1.07-1.24 2.08-.78 3.42 3.22 9.52 6.4 19.06 9.6 28.59.18.54.39 1.06.65 1.75 6.13-5.28 12.15-10.48 18.19-15.66.62-.53.59-.88.21-1.62-1.18-2.3-.34-4.67 1.77-5.45 1.99-.74 4.34.39 4.96 2.39.66 2.1-.56 4.25-2.98 4.74ZM55.79 72.61c-2.66-1.92-5.13-4.09-7.75-6.07-1.16-.88-1.28-1.45-.09-2.48 2.38-2.06 4.3-4.52 5.83-7.32 3.39-6.21 4.38-12.9 4.3-19.85.01-3.36-.27-6.67-.83-10C54.98 13.34 44.61 3.87 30.94 3 17.72 2.16 7.36 8.73 2.42 21.04-.11 27.37-.11 34 .06 40.65c.17 6.46 1.7 12.59 5.34 17.99 6.2 9.18 15.09 12.86 25.98 12.05 1.2-.09 2.1.17 3 .91 3.83 3.15 7.71 6.24 11.54 9.39.97.79 1.7 1.04 2.78.04 2.26-2.07 4.62-4.03 7.02-5.93 1.17-.93 1.47-1.47.04-2.5ZM40.05 50.22c-2.41 6.49-7.71 9.5-14.09 7.95-3.55-.86-5.81-3.22-7.36-6.35-1.14-2.3-1.84-4.78-2.04-7.33-.49-6.39-.86-12.82.74-19.12 1.64-6.47 5.81-10 11.56-10.04 5.2-.03 9.22 2.97 11.18 8.21 1.62 4.32 1.91 8.79 1.74 13.34.17 4.54-.13 9.01-1.74 13.33ZM185.37 49.87c4.46.09 8.91.03 13.37.03 4.46 0 8.92-.1 13.37.05 1.83.06 2.26-.55 2.12-2.21-.13-1.59 0-3.21-.03-4.81-.24-13.81-7.98-22.36-21.04-23.22-12.14-.81-21.05 5.58-24.21 17.3-1.06 3.93-1.07 7.93-.82 11.93.49 7.7 3.96 13.81 10.46 17.98 6.4 4.1 13.51 4.73 20.84 3.37 4.71-.87 8.76-3.07 12.15-6.49.94-.94 1.14-1.72.19-2.79-1.65-1.85-3.23-3.76-4.8-5.68-.68-.83-1.22-1.07-2.09-.16-2.15 2.26-4.96 3.24-7.94 3.83-5.85 1.15-11.14-1.81-12.95-7.12-.52-1.53-.33-2.05 1.4-2.01Zm-1.51-11.24c1.08-5.14 3.83-7.45 8.76-7.15 4.04.24 6.83 3.39 6.68 7.42-.04 1.04-.38 1.41-1.41 1.38-2.18-.05-4.37-.02-6.55-.01-2.04 0-4.08-.03-6.12.01-1.23.03-1.66-.25-1.36-1.65ZM162.94 40.24c-.96-12.33-8.76-20-21.11-20.52-9.28-.39-16.99 2.74-21.61 11.27-3.43 6.33-3.96 13.25-2.87 20.21 1.17 7.51 5.24 13.23 12.04 16.76 5.99 3.11 12.41 3.55 18.96 2.34 4.55-.84 8.51-2.94 11.88-6.15 1.18-1.13 1.61-2.06.25-3.45-1.68-1.72-3.15-3.64-4.68-5.5-.63-.76-1.11-.93-1.89-.09-2.18 2.36-5.08 3.35-8.14 3.91-5.92 1.1-11.12-1.96-12.82-7.31-.51-1.6-.06-1.86 1.4-1.85 4.46.06 8.92.02 13.38.02 4.61 0 9.21-.04 13.82.03 1.24.02 1.71-.35 1.65-1.6-.13-2.69-.06-5.4-.27-8.08Zm-14.63-1.07c-.13 1-.7 1.11-1.51 1.1-2.11-.02-4.22 0-6.33 0-2.18 0-4.37-.01-6.55 0-.89 0-1.3-.21-1.16-1.27.8-6 5.7-9.08 11.23-7.01 2.69 1.01 4.69 4.41 4.32 7.17Z"/><path class="cls-2" d="M307.78 81.51c-3.25-.88-6.32.24-7.8 2.83-1.76 3.09-1.19 7.53 1.24 9.68 2.27 2.01 6.47 2.32 8.94.57.59-.42 1.86-.76.86-1.94-.64-.75-.97-1.76-2.49-.8-2.33 1.47-4.24.57-5.02-2.05 2.36 0 4.68.02 6.99-.02.56 0 1.28.34 1.52-.72.65-2.9-1.5-6.82-4.25-7.56Zm-.04 5.15c-.12.77-.77.48-1.21.5-1 .04-2.01.01-3.11.01.12-1.34.52-2.3 1.75-2.59.79-.19 1.58-.06 2.16.66.34.43.49.9.41 1.41ZM276 81.22c-4.04-.03-6.74 2.86-6.76 7.25-.02 4.39 2.64 7.28 6.7 7.3 4.08.01 6.71-2.82 6.72-7.24.01-4.43-2.58-7.27-6.67-7.3Zm2.01 9.73c-.31 1.01-1.04 1.51-2.15 1.49-1.03-.02-1.63-.6-1.95-1.47-.51-1.4-.53-2.85-.18-4.3.29-1.22.83-2.2 2.33-2.13 1.48.07 1.93 1.12 2.19 2.31.12.56.1 1.16.17 1.97-.1.56-.17 1.37-.41 2.12Z"/></g></svg>